<?xml version="1.0" standalone="no"?><!DOCTYPE svg PUBLIC "-//W3C//DTD SVG 1.1//EN" "http://www.w3.org/Graphics/SVG/1.1/DTD/svg11.dtd"><svg t="1584693050829" class="icon" viewBox="0 0 1264 1024" version="1.1" xmlns="http://www.w3.org/2000/svg" p-id="2767" xmlns:xlink="http://www.w3.org/1999/xlink" width="158" height="128"><defs><style type="text/css"></style></defs><path d="M1119.171436 0.000301H145.739251A145.558545 145.558545 0 0 0 0 145.016729v733.936725A145.558545 145.558545 0 0 0 145.739251 1024h973.462302A145.558545 145.558545 0 0 0 1264.940804 878.953454V145.016729A145.558545 145.558545 0 0 0 1119.171436 0.000301zM145.739251 88.666628H1119.171436a56.560925 56.560925 0 0 1 56.651277 56.350101v125.831493H89.118091V145.016729A56.560925 56.560925 0 0 1 145.769369 88.666628zM1119.171436 935.333673H145.739251a56.591042 56.591042 0 0 1-56.651277-56.380219V359.514548H1141.157311a339.4559 339.4559 0 0 0 34.665402-1.535999v521.035141a56.560925 56.560925 0 0 1-56.651277 56.380218z m0 0l-416.285996-337.317548H204.438528a44.333163 44.333163 0 1 1 0-88.666327h498.446912a44.333163 44.333163 0 1 1 0 88.666327zM605.364528 791.311127H204.438528a44.333163 44.333163 0 1 1 0-88.666327H605.364528a44.333163 44.333163 0 1 1 0 88.666327z m445.741045-187.151004h-116.856436a44.333163 44.333163 0 1 1 0-88.636209h116.856436a44.333163 44.333163 0 1 1 0 88.636209z m0 0" p-id="2768"></path></svg>