<?xml version="1.0" standalone="no"?><!DOCTYPE svg PUBLIC "-//W3C//DTD SVG 1.1//EN" "http://www.w3.org/Graphics/SVG/1.1/DTD/svg11.dtd"><svg t="1582288924325" class="icon" viewBox="0 0 1024 1024" version="1.1" xmlns="http://www.w3.org/2000/svg" p-id="7966" xmlns:xlink="http://www.w3.org/1999/xlink" width="128" height="128"><defs><style type="text/css"></style></defs><path d="M437.63 959.93c-31.59 0-61.29-12.32-83.64-34.68L98.58 669.7c-46.1-46.13-46.1-121.21 0-167.34L458.2 142.54c25.93-25.93 132.35-53.67 224.06-67.67 73.89-11.29 204.27-23.76 247.45 19.43 45.75 45.78 29.69 186.44 16.04 266.21-1.61 9.37-10.42 15.71-19.89 14.07-9.38-1.6-15.68-10.5-14.08-19.89 20.38-119.07 17.84-211.73-6.44-236.02C882.68 96 797.16 92.2 687.45 108.92c-111.64 17.04-192.01 45.09-204.89 57.98L122.95 526.72c-32.68 32.71-32.68 85.91 0 118.62L378.37 900.9c15.83 15.85 36.89 24.58 59.27 24.58s43.42-8.73 59.24-24.58l314.21-314.36c6.73-6.73 17.64-6.73 24.37 0s6.73 17.63 0.01 24.36L521.26 925.25c-22.34 22.36-52.03 34.68-83.61 34.68h-0.02zM942.61 676.4c-9.51 0-17.23-7.71-17.23-17.23 0-175.7-102.67-237.65-126.31-249.58-22.77 44.82-69.34 75.61-122.97 75.61-76 0-137.83-61.83-137.83-137.83S600.1 209.54 676.1 209.54s137.83 61.83 137.83 137.83c0 10.16-1.1 20.06-3.2 29.6 22.28 10.41 149.11 78.71 149.11 282.21 0 9.51-7.71 17.22-17.23 17.22zM676.09 243.99c-57 0-103.37 46.37-103.37 103.37s46.37 103.37 103.37 103.37 103.37-46.37 103.37-103.37-46.36-103.37-103.37-103.37z" p-id="7967"></path></svg>