<?xml version="1.0" standalone="no"?><!DOCTYPE svg PUBLIC "-//W3C//DTD SVG 1.1//EN" "http://www.w3.org/Graphics/SVG/1.1/DTD/svg11.dtd"><svg t="1582213545444" class="icon" viewBox="0 0 1024 1024" version="1.1" xmlns="http://www.w3.org/2000/svg" p-id="11876" xmlns:xlink="http://www.w3.org/1999/xlink" width="128" height="128"><defs><style type="text/css"></style></defs><path d="M335.6 647.9c-86.2 0-156.1 69.9-156.1 156.1s69.9 156 156.1 156 156.1-69.9 156.1-156.1-69.9-156-156.1-156z m2.7 231.4c-44.5 0-80.7-36.2-80.7-80.7s36.1-80.7 80.7-80.7S419 754 419 798.5s-36.1 80.8-80.7 80.8z m364.6-242.2c-86.9 0-157.4 70.5-157.4 157.4S616 951.8 702.9 951.8s157.4-70.5 157.4-157.4c-0.1-86.8-70.5-157.3-157.4-157.3z m4 239.4c-44.5 0-80.7-36.1-80.7-80.7 0-44.5 36.1-80.7 80.7-80.7s80.7 36.2 80.7 80.7c0 44.6-36.2 80.7-80.7 80.7zM822.6 80.1C908.7 190.5 854.9 290 854.9 290L518.6 717.8S287.3 451.4 193.1 319.6 198.4 64 198.4 64l320.2 409 304-392.9zM518.6 629c22.3 0 40.4-18.1 40.4-40.4 0-22.3-18.1-40.4-40.4-40.4-22.3 0-40.4 18.1-40.4 40.4 0 22.3 18.1 40.4 40.4 40.4z" p-id="11877"></path></svg>