<?xml version="1.0" standalone="no"?><!DOCTYPE svg PUBLIC "-//W3C//DTD SVG 1.1//EN" "http://www.w3.org/Graphics/SVG/1.1/DTD/svg11.dtd"><svg t="1583070902828" class="icon" viewBox="0 0 1024 1024" version="1.1" xmlns="http://www.w3.org/2000/svg" p-id="2429" xmlns:xlink="http://www.w3.org/1999/xlink" width="128" height="128"><defs><style type="text/css"></style></defs><path d="M874.666667 42.666667c-6.4 0-10.666667 2.133333-14.933334 6.4l-277.333333 277.333333c-8.533333 8.533333-8.533333 21.333333 0 29.866667 4.266667 4.266667 10.666667 6.4 14.933333 6.4 6.4 0 10.666667-2.133333 14.933334-6.4l277.333333-277.333334c8.533333-8.533333 8.533333-21.333333 0-29.866666-4.266667-4.266667-8.533333-6.4-14.933333-6.4" p-id="2430"></path><path d="M597.333333 405.333333c-17.066667 0-34.133333-6.4-44.8-19.2-25.6-25.6-25.6-66.133333 0-89.6L782.933333 66.133333c-4.266667-2.133333-10.666667-2.133333-14.933333-2.133333H234.666667C177.066667 64 128 113.066667 128 170.666667v682.666666c0 59.733333 49.066667 106.666667 106.666667 106.666667h533.333333c59.733333 0 106.666667-49.066667 106.666667-106.666667V170.666667c0-4.266667 0-10.666667-2.133334-14.933334L642.133333 386.133333c-10.666667 12.8-27.733333 19.2-44.8 19.2m-341.333333 64h234.666667c10.666667 0 21.333333 10.666667 21.333333 21.333334s-10.666667 21.333333-21.333333 21.333333H256c-10.666667 0-21.333333-10.666667-21.333333-21.333333s10.666667-21.333333 21.333333-21.333334m469.333333 234.666667c0 10.666667-10.666667 21.333333-21.333333 21.333333H256c-10.666667 0-21.333333-10.666667-21.333333-21.333333s10.666667-21.333333 21.333333-21.333333h448c10.666667 0 21.333333 10.666667 21.333333 21.333333" p-id="2431"></path></svg>