<?xml version="1.0" standalone="no"?><!DOCTYPE svg PUBLIC "-//W3C//DTD SVG 1.1//EN" "http://www.w3.org/Graphics/SVG/1.1/DTD/svg11.dtd"><svg t="1581933755474" class="icon" viewBox="0 0 1365 1024" version="1.1" xmlns="http://www.w3.org/2000/svg" p-id="5036" xmlns:xlink="http://www.w3.org/1999/xlink" width="266.6015625" height="200"><defs><style type="text/css"></style></defs><path d="M434.631 1024h834.56a96.142 96.142 0 0 0 96.142-96.142V700.302H434.631z m-93.298-640.569H0v544.427A96.142 96.142 0 0 0 96.142 1024h245.191V384z m93.298 0.569v225.28h930.702V383.431H434.631V384z m834.56-384H96.142A96.142 96.142 0 0 0 0 96.142v193.422h1365.333V96.142A96.142 96.142 0 0 0 1269.191 0zM181.476 240.071a47.787 47.787 0 1 1 46.08-47.787 47.787 47.787 0 0 1-46.08 47.787z m138.808 0a47.787 47.787 0 1 1 47.787-47.787 47.787 47.787 0 0 1-47.787 47.787z m138.81 0a47.787 47.787 0 1 1 47.786-47.787 47.787 47.787 0 0 1-48.356 47.787z" p-id="5037"></path></svg>