<?xml version="1.0" standalone="no"?><!DOCTYPE svg PUBLIC "-//W3C//DTD SVG 1.1//EN" "http://www.w3.org/Graphics/SVG/1.1/DTD/svg11.dtd"><svg t="1582983600420" class="icon" viewBox="0 0 1024 1024" version="1.1" xmlns="http://www.w3.org/2000/svg" p-id="10983" xmlns:xlink="http://www.w3.org/1999/xlink" width="128" height="128"><defs><style type="text/css"></style></defs><path d="M630.442667 0H393.272889c-29.070222 0-52.337778 26.055111-52.337778 58.254222 0 32.256 23.324444 58.368 52.337778 58.368h238.648889c27.591111 0 50.915556-26.168889 50.915555-58.368 0-32.199111-23.324444-58.254222-52.394666-58.254222zM768 58.538667c0 75.832889-13.539556 117.020444-85.333333 117.020444H341.333333c-71.452444 0-85.333333-54.215111-85.333333-117.020444h-113.777778c-47.900444 0-85.333333 36.067556-85.333333 87.722666v789.959111C56.888889 994.247111 87.608889 1024 142.222222 1024h739.555556c45.568 0 85.333333-28.558222 85.333333-87.779556V146.261333c0-57.059556-31.800889-87.722667-85.333333-87.722666h-113.777778z m-27.875556 731.306666H289.564444c-16.611556 0-33.166222-17.521778-33.166222-31.857777 0-14.222222 13.994667-26.453333 30.606222-26.453334h449.251556c16.611556 0 30.663111 11.093333 31.857778 26.453334 0 14.336-11.377778 31.857778-27.989334 31.857777z m-5.973333-205.027555H282.851556c-16.668444 0-27.249778-15.36-27.249778-29.696 0-14.279111 14.051556-28.615111 30.72-28.615111h449.991111c16.611556 0 30.72 13.255111 31.914667 28.615111 0 14.336-17.464889 29.696-34.133334 29.696z m0-204.8H282.851556c-16.668444 0-27.249778-15.303111-27.249778-29.582222 0-14.336 14.051556-28.672 30.72-28.672h449.991111c16.611556 0 30.72 13.255111 31.914667 28.672 0 14.279111-17.464889 29.582222-34.133334 29.582222z" p-id="10984"></path></svg>