<?xml version="1.0" standalone="no"?><!DOCTYPE svg PUBLIC "-//W3C//DTD SVG 1.1//EN" "http://www.w3.org/Graphics/SVG/1.1/DTD/svg11.dtd"><svg t="1582984248216" class="icon" viewBox="0 0 1024 1024" version="1.1" xmlns="http://www.w3.org/2000/svg" p-id="17227" xmlns:xlink="http://www.w3.org/1999/xlink" width="128" height="128"><defs><style type="text/css"></style></defs><path d="M512 0c79.5136 0 144.5888 69.12 144.5888 153.6h228.864c19.8656 0 36.1472 17.3056 36.1472 38.4v793.6c0 21.1456-16.2816 38.4-36.1472 38.4H138.5472C118.6816 1024 102.4 1006.7456 102.4 985.6V192c0-21.0944 16.2816-38.4 36.1472-38.4h228.864c0-85.4528 65.0752-153.6 144.5888-153.6z m-68.1472 409.6H307.2l107.3152 176.5888H323.072v61.7472h128v33.792h-128v62.6176h128V819.2h124.3648v-74.8544h125.8496v-62.6176h-125.8496v-33.792h125.8496v-61.7472h-88.7808L716.8 409.6h-136.9088l-67.584 139.1616L443.8528 409.6zM512 115.2c-19.8656 0-36.1472 17.3056-36.1472 38.4s16.2816 38.4 36.1472 38.4c19.8656 0 36.1472-17.3056 36.1472-38.4s-16.2816-38.4-36.1472-38.4z" p-id="17228"></path></svg>