<?xml version="1.0" standalone="no"?><!DOCTYPE svg PUBLIC "-//W3C//DTD SVG 1.1//EN" "http://www.w3.org/Graphics/SVG/1.1/DTD/svg11.dtd"><svg t="1582983793437" class="icon" viewBox="0 0 1024 1024" version="1.1" xmlns="http://www.w3.org/2000/svg" p-id="16390" xmlns:xlink="http://www.w3.org/1999/xlink" width="128" height="128"><defs><style type="text/css"></style></defs><path d="M604.026 800.026c40.069-46.539 40.069-122.074 0-168.614-40.069-46.54-105.102-46.54-145.171 0-9.71 11.278-17.029 24.254-22.037 38.126l-60.49-117.332-32.747 58.62c39.528 65.245 107.877 180.607 115.35 189.288 40.068 46.541 105.026 46.451 145.095-0.088z m-32.132-37.231c-22.342 25.949-58.566 25.949-80.907 0s-22.342-68.023 0-93.972c22.342-25.948 58.566-25.949 80.907 0 22.34 25.95 22.341 68.022 0 93.972z" fill="#515151" p-id="16391"></path><path d="M239.416 800.116c7.475-8.682 75.822-124.045 115.35-189.288l-32.747-58.62-60.49 117.332c-5.007-13.871-12.327-26.849-22.037-38.126-40.069-46.539-105.102-46.539-145.171 0-40.069 46.54-40.069 122.074 0 168.614 40.069 46.539 105.026 46.627 145.095 0.088zM126.453 668.823c22.342-25.949 58.566-25.949 80.907 0s22.342 68.023 0 93.972c-22.342 25.949-58.566 25.949-80.907 0-22.341-25.95-22.341-68.022 0-93.972z" fill="#515151" p-id="16392"></path><path d="M345.951 488.004l20.519-33.002 179.54-320.037c11.682 106.24-9.762 213.545-60.436 302.497l-59.911 105.142-27.198 45.642-4.861 8.524-1.621-2.877-46.032-105.889z" fill="#515151" p-id="16393"></path><path d="M391.031 601.18c-22.996 35.763-66.954 33.406-89.077-3.789l-82.386-160.936c-46.421-90.028-78.212-197.203-65.5-303.308l238.711 403.105c11.297 20.417 11.297 45.834-1.748 64.928z" fill="#515151" p-id="16394"></path><path d="M327.916 563.599a21.484 24.953 0 1 0 42.968 0 21.484 24.953 0 1 0-42.968 0Z" fill="#515151" p-id="16395"></path><path d="M753.365 511.093h-74.918c-10.365 0-18.73 10.435-18.73 23.363v249.199c0 38.625 25.222 70.087 56.188 70.087 6.618 0 12.861-1.402 18.73-4.05 21.851-9.657 37.459-35.667 37.459-66.038V534.456c0.001-12.927-8.364-23.363-18.729-23.363z" fill="#515151" p-id="16396"></path><path d="M940.661 184.02H790.824c-10.347 0-18.73-10.457-18.73-23.363s8.384-23.361 18.73-23.361h149.837c10.346 0 18.73 10.457 18.73 23.363s-8.385 23.361-18.73 23.361zM940.661 277.47H790.824c-10.347 0-18.73-10.457-18.73-23.363s8.383-23.363 18.73-23.363h149.837c10.346 0 18.73 10.457 18.73 23.363s-8.385 23.363-18.73 23.363zM940.661 370.92H790.824c-10.347 0-18.73-10.457-18.73-23.363 0-12.906 8.383-23.363 18.73-23.363h149.837c10.346 0 18.73 10.457 18.73 23.363 0 12.906-8.385 23.363-18.73 23.363zM940.661 464.369H790.824c-10.347 0-18.73-10.457-18.73-23.363 0-12.906 8.383-23.363 18.73-23.363h149.837c10.346 0 18.73 10.457 18.73 23.363 0 12.906-8.385 23.363-18.73 23.363zM940.661 557.819H790.824c-10.347 0-18.73-10.457-18.73-23.363 0-12.906 8.383-23.363 18.73-23.363h149.837c10.346 0 18.73 10.457 18.73 23.363s-8.385 23.363-18.73 23.363z" fill="#515151" p-id="16397"></path><path d="M792.589 557.819H659.718V192.051c0-30.24 17.428-54.755 38.927-54.755h93.944v420.523z" fill="#515151" p-id="16398"></path><path d="M772.094 783.655V534.456c0-12.927-8.364-23.363-18.729-23.363h-37.458v342.649c6.617 0 12.86-1.402 18.729-4.05 21.851-9.656 37.458-35.667 37.458-66.037z" fill="#515151" p-id="16399"></path><path d="M715.907 137.296h80.774v420.523h-80.774z" fill="#515151" p-id="16400"></path></svg>