<?xml version="1.0" standalone="no"?><!DOCTYPE svg PUBLIC "-//W3C//DTD SVG 1.1//EN" "http://www.w3.org/Graphics/SVG/1.1/DTD/svg11.dtd"><svg t="1583070971361" class="icon" viewBox="0 0 1024 1024" version="1.1" xmlns="http://www.w3.org/2000/svg" p-id="4469" xmlns:xlink="http://www.w3.org/1999/xlink" width="128" height="128"><defs><style type="text/css"></style></defs><path d="M512 62.2c-247.9 0-448.9 201-448.9 448.9S264.1 960 512 960s448.9-201 448.9-448.9S759.9 62.2 512 62.2z m272.6 620.1c-3.4 15.4-10.3 29.3-20.8 41.9-10.5 12.6-24.5 22.2-41.9 29-17.4 6.7-38 9.9-61.6 9.6-23.6-0.4-50.1-5.6-79.3-15.7-20.2-7.1-36.2-16-47.8-26.7-11.6-10.7-20.3-21.7-26.2-32.9s-9.3-21.8-10.4-31.8c-1.1-9.9-1.3-17.7-0.6-23.3 0.7-5.6 3.1-12.6 7-20.8 3.9-8.2 8-16.1 12.1-23.6 4.9-9 10.3-18.2 16.3-27.6 3-4.9 5.6-9.6 7.9-14.1 1.9-4.1 3.4-8.2 4.5-12.4 1.1-4.1 1.1-8.1 0-11.8-3.7-9.7-8.4-17.2-14.1-22.5-5.6-5.2-11.1-9.2-16.3-11.8-6.4-2.6-12.9-4.1-19.7-4.5-9.4-0.4-18-1.5-25.9-3.4-6.7-1.9-13.4-4.3-20-7.3s-11.3-7.7-14.3-14.1c-3.4-6.4-4.8-12.9-4.2-19.7 0.6-6.7 1.9-13.4 3.9-20 2.1-6.6 4.2-12.8 6.5-18.8 2.2-6 3.4-11.2 3.4-15.7 0-12-6.4-20.4-19.1-25.3-16.5-4.1-28.9-5.8-37.1-5.1-8.2 0.8-14.1 2.3-17.4 4.8s-5.1 4.7-5.1 6.7v0.8c0 5.2 0.7 12 2 20.2s0.7 16.1-2 23.6c-1.9 4.5-4.4 8.7-7.6 12.7-3.2 3.9-5.9 7.6-8.2 11-3 4.9-5.5 9.1-7.6 12.7-2.1 3.6-2.9 5.9-2.5 7 0.8 1.5 2.5 2.5 5.3 3.1 2.8 0.6 5 1.2 6.5 2 1.9 1.1 3.1 2.9 3.7 5.3 0.6 2.4 2 4.6 4.2 6.5 3.7 3.7 6 6.9 6.7 9.6 0.4 1.5 0.4 2.8 0 3.9 0 3 0.2 6.6 0.6 10.7 0.4 3.4 0.8 7.2 1.4 11.5 0.6 4.3 1.4 8.5 2.5 12.7 2.2 9.7 4.9 16.6 7.9 20.5s6.7 6.4 11 7.3c4.3 0.9 9.5 1 15.5 0.3 6-0.8 13.3-1.1 21.9-1.1 6.4 0.4 12.9 0.6 19.7 0.6s12.7 1.5 18 4.5c5.2 3 9.4 7.1 12.4 12.4 3 5.2 5.4 10.5 7.3 15.7 1.5 6.4 2.6 12.9 3.4 19.7 1.1 8.6 1.7 17.2 1.7 25.9 0 7.5-0.4 15.7-1.1 24.5-0.8 8.8-2.6 17.5-5.6 26.2-6.4 17.6-15.7 30.7-28.1 39.4-12.4 8.6-25.7 14.2-39.9 16.9-15 3-29.2 3.4-42.7 1.1-13.5-2.2-25.7-6-36.6-11.2-10.9-5.2-19.8-11.6-26.7-19.1-6.9-7.5-11.2-15-12.7-22.5-1.1-6-1.2-11.9-0.3-17.7 0.9-5.8 2.3-11.4 4.2-16.9s4.1-10.6 6.7-15.5c2.6-4.9 4.9-9.6 6.7-14.1 3.4-7.1 5.4-13.4 6.2-18.8 0.7-5.4 0.7-10 0-13.8-0.8-4.1-2.2-7.9-4.5-11.2-3.4-3.7-6.9-7.7-10.7-11.8-3-3.7-6.2-7.8-9.6-12.1-3.4-4.3-6.2-9.1-8.4-14.3-7.5-15.4-11.4-29.6-11.8-42.7 0-5.6 0.1-12.5 0.3-20.5s1.6-15.7 4.2-22.8c2.2-6 7.8-14 16.6-23.9 8.8-9.9 18.7-22.8 29.5-38.5 2.2-4.5 4.2-9.2 5.9-14.1 1.7-4.9 3-9.4 3.9-13.5 0.9-4.1 1.6-7.7 2-10.7 0.4-3 0.6-5.1 0.6-6.2 0-3.7-0.2-7.9-0.6-12.4-0.4-4.5-0.8-9.2-1.1-14.1 0-2.2-0.2-6-0.6-11.2-0.4-5.2 0.1-11.1 1.4-17.4 1.3-6.4 3.7-12.8 7-19.4 3.4-6.6 8.6-12.5 15.7-17.7 5.6-4.1 12.3-7 20-8.7s14.9-2.7 21.7-3.1c7.9-0.4 16.1-0.2 24.7 0.6 7.1-2.6 14.6-4.7 22.5-6.2 6.7-1.5 14.6-2.8 23.6-3.9 9-1.1 18.4-1.7 28.1-1.7 32.6 0.7 60 5.7 82.1 14.9s40.3 20.4 54.6 33.7 25.1 27.7 32.6 43.3c7.5 15.6 12.9 30 16.3 43.3 3.4 13.3 5.3 24.6 5.9 33.7 0.6 9.2 0.8 14 0.8 14.3 0.4 6.4 2.6 12.2 6.7 17.4s8.9 10.6 14.3 16 11.1 11 16.9 16.6c5.8 5.6 10.8 11.8 14.9 18.6 7.9 14.2 12.2 27 12.9 38.2 0.7 11.2-0.7 21.2-4.5 29.8-3.7 8.6-9 16-15.7 22.2S722.9 578.8 716 583c-6.9 4.1-13.3 7.3-19.1 9.6-5.8 2.2-9.5 3.7-11 4.5-12.4 5.6-21.8 11.8-28.4 18.6-6.6 6.7-11 13.5-13.2 20.2-2.2 6.7-2.7 13.3-1.4 19.7 1.3 6.4 4 11.8 8.2 16.3 2.6 3.4 6 6.2 10.1 8.4s8.3 3.9 12.7 5.1 8.4 1.8 12.4 2c3.9 0.2 7.2-0.1 9.8-0.8 6-1.1 11-3.8 14.9-8.2 3.9-4.3 6.3-8.9 7-13.8 0.7-4.9-0.3-9-3.1-12.4-2.8-3.4-7.8-4.9-14.9-4.5-3.4 0.4-6.9 1-10.7 2-3.7 0.9-7.1 2-10.1 3.1-3.7 1.5-7.3 3.2-10.7 5.1-0.7-4.1-0.6-8.2 0.6-12.4 0.7-3.7 2.2-7.7 4.5-11.8s6-8.2 11.2-12.4c9.4-6.4 20.5-10.3 33.5-11.8 12.9-1.5 25 0 36.3 4.5 11.2 4.5 20.1 12.3 26.4 23.3s7.7 25.9 3.6 45z" fill="#515151" p-id="4470"></path></svg>