<?xml version="1.0" standalone="no"?><!DOCTYPE svg PUBLIC "-//W3C//DTD SVG 1.1//EN" "http://www.w3.org/Graphics/SVG/1.1/DTD/svg11.dtd"><svg t="1583234853340" class="icon" viewBox="0 0 1024 1024" version="1.1" xmlns="http://www.w3.org/2000/svg" p-id="3522" xmlns:xlink="http://www.w3.org/1999/xlink" width="128" height="128"><defs><style type="text/css"></style></defs><path d="M692.38 64.983h-60.342v120.672l60.342 0.637V64.983z m122.63 304.281h121.31v-60.341H815.652l-0.641 60.341z m120.595-261.55L892.943 65.05l-131.655 131.65L803.5 239.82l132.105-132.106zM564.421 641.026L936.33 502.02 498.922 67.566 357.506 436.125 243.06 550.569 448.97 756.48 580.52 888.034l42.667-42.666L491.632 713.81l72.79-72.784z m-150.527-181.72l107.912-282.803 303.31 301.048-282.817 108.613-88.454 88.454-127.629-127.633 87.678-87.68z m9.112 324.524L217.11 577.927 85.457 709.587l205.898 205.892 88.975-88.98L511.9 958.072l42.666-42.666-131.57-131.567 0.009-0.008z m-129.44 45.299L171.808 707.375l42.825-42.825 121.754 121.76-42.82 42.819z m0 0" p-id="3523"></path></svg>