<?xml version="1.0" standalone="no"?><!DOCTYPE svg PUBLIC "-//W3C//DTD SVG 1.1//EN" "http://www.w3.org/Graphics/SVG/1.1/DTD/svg11.dtd"><svg t="1582213441432" class="icon" viewBox="0 0 1024 1024" version="1.1" xmlns="http://www.w3.org/2000/svg" p-id="7371" xmlns:xlink="http://www.w3.org/1999/xlink" width="128" height="128"><defs><style type="text/css"></style></defs><path d="M800.13568115 145.86935425h-104.95623779v13.11602783c0 43.47619629-35.23397827 78.7184143-78.71759033 78.7184143h-209.91741944c-43.47619629 0-78.72006226-35.24798584-78.72006226-78.7184143v-13.11602783h-104.95046997c-43.47619629 0-78.71759033 35.24551391-78.71759032 78.71759033v629.75473022c0 43.5050354 35.24551391 78.71759033 78.71759032 78.71759033h577.27908326c43.5050354 0 78.7184143-35.23233032 78.71841431-78.71759033v-629.75473022c0-43.47619629-35.23397827-78.71759033-78.71841431-78.71759033v0zM695.17697143 723.14926148h-367.36331176c-14.49371338 0-26.24194336-11.74328613-26.24194336-26.24194336 0-14.47393799 11.74658203-26.24194336 26.24194336-26.24194336h367.36331176c14.47393799 0 26.24194336 11.75894165 26.24194336 26.24194336 0 14.506073-11.75894165 26.24194336-26.24194336 26.24194336v0zM695.17697143 565.71243286h-367.36331176c-14.49371338 0-26.24194336-11.74328613-26.24194336-26.24194336 0-14.47393799 11.74658203-26.21887208 26.24194336-26.21887207h367.36331176c14.47393799 0 26.24194336 11.74658203 26.24194336 26.21887207 0 14.506073-11.75894165 26.24194336-26.24194336 26.24194336v0zM695.17697143 408.28466797h-367.36331176c-14.49371338 0-26.24194336-11.74658203-26.24194336-26.24194336s11.74658203-26.24194336 26.24194336-26.24194336h367.36331176c14.47393799 0 26.24194336 11.74658203 26.24194336 26.24194336s-11.75894165 26.24194336-26.24194336 26.24194336v0zM695.17697143 408.28466797z" p-id="7372"></path><path d="M419.67446899 198.35571289h183.67382813c21.75869751 0 39.36538696-17.63305664 39.36538696-39.36538696v-26.24194336c0-21.73068237-17.61328125-39.36538696-39.36538696-39.36538697h-183.67382813c-21.73068237 0-39.36538696 17.62316895-39.36538696 39.36538697v26.24194336c0 21.72821045 17.62316895 39.36538696 39.36538696 39.36538696v0zM419.67446899 198.35571289z" p-id="7373"></path></svg>