<?xml version="1.0" standalone="no"?><!DOCTYPE svg PUBLIC "-//W3C//DTD SVG 1.1//EN" "http://www.w3.org/Graphics/SVG/1.1/DTD/svg11.dtd"><svg t="1582213475670" class="icon" viewBox="0 0 1024 1024" version="1.1" xmlns="http://www.w3.org/2000/svg" p-id="7556" xmlns:xlink="http://www.w3.org/1999/xlink" width="128" height="128"><defs><style type="text/css"></style></defs><path d="M512 227.653818c-105.658182 0-191.255273 85.643636-191.255273 191.255273 0 105.658182 85.643636 191.255273 191.255273 191.255273 105.658182 0 191.255273-85.643636 191.255273-191.255273C703.255273 313.297455 617.658182 227.653818 512 227.653818zM512 565.108364c-80.709818 0-146.199273-65.442909-146.199273-146.199273S431.290182 272.709818 512 272.709818 658.199273 338.199273 658.199273 418.909091 592.709818 565.108364 512 565.108364zM798.068364 574.882909C823.389091 528.570182 837.818182 475.415273 837.818182 418.909091c0-179.944727-145.873455-325.818182-325.818182-325.818182C332.055273 93.090909 186.181818 238.964364 186.181818 418.909091c0 56.506182 14.429091 109.661091 39.749818 155.973818l-134.283636 232.587636 164.119273 41.006545 118.039273 121.902545 130.513455-226.024727C506.88 744.401455 509.393455 744.727273 512 744.727273s5.12-0.325818 7.68-0.372364l130.513455 226.024727 118.039273-121.902545 164.119273-41.006545L798.068364 574.882909zM368.407273 886.644364l-78.754909-75.915636-122.786909-40.401455 87.784727-152.064c48.221091 62.184727 118.318545 106.356364 198.888727 120.971636L368.407273 886.644364zM512 699.624727c-155.042909 0-280.715636-125.672727-280.715636-280.715636 0-155.042909 125.672727-280.715636 280.715636-280.715636 155.042909 0 280.715636 125.672727 280.715636 280.715636C792.715636 573.952 667.042909 699.624727 512 699.624727zM734.347636 810.728727l-78.754909 75.915636-85.131636-147.456c80.570182-14.615273 150.667636-58.786909 198.888727-120.971636l87.784727 152.064L734.347636 810.728727z" p-id="7557"></path></svg>